<svg xmlns="http://www.w3.org/2000/svg" preserveAspectRatio="xMidYMid" width="16" height="16" viewBox="0 0 256 288">
<rect id="backgroundrect" width="100%" height="100%" x="0" y="0" fill="none" stroke="none"/><g class="currentLayer" style=""><title>Layer 1</title>

<mask id="c">
	<rect x="0" y="0" width="100%" height="100%" fill="white"/>
	<path d="M154.456 126.968l39.839.281c0-16.599-16.802-57.249-64.973-57.249-30.691 0-71.951 19.512-71.951 75.61 0 56.097 40.447 74.39 71.951 74.39 51.017 0 63.21-35.302 63.21-55.252l-38.007-2.173s1.017 23.075-25.406 23.075c-24.39 0-28.46-29.878-28.46-40.04 0-15.447 5.493-40.244 28.46-40.244 22.968 0 25.337 21.602 25.337 21.602" fill="#000000" id="svg_3" class="" fill-opacity="1"/>
</mask>

<path d="M256.4972035884857,85.6719970703125 c-0.0020000000949949026,-4.8429999351501465 -1.0369999408721924,-9.121999740600586 -3.128999948501587,-12.793999671936035 c-2.055000066757202,-3.611999988555908 -5.133999824523926,-6.638000011444092 -9.26200008392334,-9.031999588012695 c-34.08100128173828,-19.670000076293945 -68.19499969482422,-39.279998779296875 -102.26399993896484,-58.970001220703125 c-9.1850004196167,-5.307000160217285 -18.090999603271484,-5.113999843597412 -27.20800018310547,0.27000001072883606 c-13.5649995803833,8.008000373840332 -81.48100280761719,46.95600128173828 -101.71900177001953,58.68899917602539 C4.581204175949097,68.66500091552734 0.5252040764316916,76.05599975585938 0.5232040770351887,85.66300201416016 C0.5102040767669678,125.22100067138672 0.5232040770351887,164.77699279785156 0.5102040767669678,204.33599853515625 c0.0020000000949949026,4.736000061035156 0.9929999709129333,8.932000160217285 2.993000030517578,12.550000190734863 c2.055999994277954,3.7200000286102295 5.177000045776367,6.829999923706055 9.401000022888184,9.277999877929688 c20.23900032043457,11.732999801635742 88.16400146484375,50.678001403808594 101.72599792480469,58.6879997253418 c9.121000289916992,5.38700008392334 18.027000427246094,5.578999996185303 27.21500015258789,0.27000001072883606 c34.06999969482422,-19.69099998474121 68.18599700927734,-39.29999923706055 102.27200317382812,-58.970001220703125 c4.223999977111816,-2.447000026702881 7.34499979019165,-5.559000015258789 9.401000022888184,-9.276000022888184 c1.996999979019165,-3.618000030517578 2.990000009536743,-7.814000129699707 2.992000102996826,-12.550999641418457 c0,0 0,-79.09400177001953 -0.013000000268220901,-118.65299987792969 " fill="#e0e0e0" id="svg_1" class="" mask="url(#c)" fill-opacity="1"/>

<path d="M141.101 5.134c-9.17-5.294-18.061-5.101-27.163.269C100.395 13.39 32.59 52.237 12.385 63.94 4.064 68.757.015 76.129.013 85.711 0 125.166.013 164.62 0 204.076c.002 4.724.991 8.909 2.988 12.517 2.053 3.711 5.169 6.813 9.386 9.254a9008.51 9008.51 0 0 0 20.159 11.62L219.625 50.375c-26.178-15.074-52.363-30.136-78.524-45.241" fill="#f0f0f0" id="svg_2" class="" mask="url(#c)" fill-opacity="1"/>


</g></svg>