<?xml version="1.0" encoding="UTF-8" standalone="no"?>
<svg
   xmlns:dc="http://purl.org/dc/elements/1.1/"
   xmlns:cc="http://creativecommons.org/ns#"
   xmlns:rdf="http://www.w3.org/1999/02/22-rdf-syntax-ns#"
   xmlns:svg="http://www.w3.org/2000/svg"
   xmlns="http://www.w3.org/2000/svg"
   xmlns:sodipodi="http://sodipodi.sourceforge.net/DTD/sodipodi-0.dtd"
   xmlns:inkscape="http://www.inkscape.org/namespaces/inkscape"
   viewBox="0 64 512 448"
   version="1.1"
   id="svg929"
   sodipodi:docname="html5.svg"
   inkscape:version="0.92.2 (5c3e80d, 2017-08-06)">
  <metadata
     id="metadata935">
    <rdf:RDF>
      <cc:Work
         rdf:about="">
        <dc:format>image/svg+xml</dc:format>
        <dc:type
           rdf:resource="http://purl.org/dc/dcmitype/StillImage" />
      </cc:Work>
    </rdf:RDF>
  </metadata>
  <defs
     id="defs933" />
  <sodipodi:namedview
     pagecolor="#ffffff"
     bordercolor="#666666"
     borderopacity="1"
     objecttolerance="10"
     gridtolerance="10"
     guidetolerance="10"
     inkscape:pageopacity="0"
     inkscape:pageshadow="2"
     inkscape:window-width="1920"
     inkscape:window-height="1057"
     id="namedview931"
     showgrid="false"
     inkscape:zoom="1.4015867"
     inkscape:cx="123.57021"
     inkscape:cy="258.26434"
     inkscape:window-x="1912"
     inkscape:window-y="-8"
     inkscape:window-maximized="1"
     inkscape:current-layer="svg929" />
  <title
     id="title915">HTML5 Logo</title>
  <path
     style="fill:#c8c8c8;fill-opacity:1;stroke:none;stroke-width:0.13483033;stroke-linejoin:round;stroke-miterlimit:4;stroke-dasharray:none;stroke-opacity:1;paint-order:normal"
     d="M 181.01368,426.86217 C 141.286,415.78811 108.60344,406.54942 108.38576,406.33174 108.07054,406.01652 75.242835,41.058245 75.235325,37.785562 75.233693,37.074424 111.89733,36.893716 256.18073,36.893716 H 437.1282 l -0.41662,3.032278 c -0.22914,1.667752 -7.68626,84.743246 -16.57139,184.612206 -8.88512,99.86896 -16.24952,181.6841 -16.36532,181.81142 -0.64919,0.71379 -146.61004,40.75256 -148.38862,40.70474 -1.17724,-0.0316 -34.64489,-9.11813 -74.37257,-20.19219 z m 135.37486,-26.17483 c 32.76644,-9.06984 59.78455,-16.69534 60.04024,-16.94556 0.41091,-0.4021 28.44639,-311.94893 28.43532,-315.990179 l -0.004,-1.605324 h -74.91509 -74.9151 v 22.831268 22.831265 h -56.66988 -56.66988 l 0.3804,3.74576 c 0.20922,2.06016 2.99731,33.12317 6.19575,69.02891 l 5.81536,65.28315 50.47413,0.18316 50.47412,0.18316 v 35.71715 c 0,33.6803 -0.0712,35.69624 -1.24858,35.35063 -0.68673,-0.20158 -11.68319,-3.16619 -24.4366,-6.58803 -12.7534,-3.42183 -23.3649,-6.485 -23.58111,-6.80704 -0.21621,-0.32205 -0.94934,-7.25181 -1.62919,-15.39948 -0.67985,-8.14767 -1.41411,-16.01793 -1.63167,-17.48948 l -0.39558,-2.67554 h -23.10746 -23.10745 l 0.33467,1.96207 c 0.18407,1.07913 1.64878,17.0521 3.25491,35.49548 1.60614,18.44338 3.1331,33.72587 3.39325,33.96108 0.33946,0.30692 78.46738,22.06135 92.15438,25.68133 1.1576,0.30616 4.3e-4,1.83502 4.3e-4,23.91763 0,18.5787 0.19619,23.81837 0.89185,23.81874 0.49051,2.6e-4 27.70075,-7.4203 60.46718,-16.49015 z"
     id="path953"
     inkscape:connector-curvature="0"
     transform="translate(0,64)"
     sodipodi:nodetypes="sssscssccsccccccccccsscccscscscccccsccsccc" />
  <path
     style="fill:#c0c0c0;fill-opacity:1;stroke:none;stroke-width:0.13483033;stroke-linejoin:round;stroke-miterlimit:4;stroke-dasharray:none;stroke-opacity:1;paint-order:normal"
     d="m 194.47882,184.76185 c -0.91777,-10.49703 -1.84109,-20.77111 -2.05181,-22.83127 l -0.38312,-3.74576 h 31.49281 31.49281 v 22.83127 22.83127 h -29.441 -29.441 z"
     id="path955"
     inkscape:connector-curvature="0"
     transform="translate(0,64)" />
  <path
     style="fill:#d0d0d0;fill-opacity:1;stroke:none;stroke-width:0.13581306;stroke-linejoin:round;stroke-miterlimit:4;stroke-dasharray:none;stroke-opacity:1;paint-order:normal"
     d="m 255.02948,456.23885 v -22.79773 l 2.35272,-0.65261 c 1.294,-0.35893 22.06134,-6.02747 46.14962,-12.59673 24.08829,-6.56928 44.05917,-12.18387 44.37972,-12.47689 0.53233,-0.48657 12.7929,-132.19181 12.80457,-137.54873 l 0.005,-2.3188 h -52.84583 -52.84584 v -22.83127 -22.83127 h 54.98478 54.98478 l 0.38347,-2.3188 c 0.31244,-1.8894 4.02563,-42.12323 4.02563,-43.61934 0,-0.24082 -25.7352,-0.43787 -57.18933,-0.43787 h -57.18936 v -22.11779 -22.11779 h 74.22151 74.2215 l -0.45659,4.45923 c -0.25113,2.45258 -6.69401,73.32761 -14.31749,157.50008 l -13.86091,153.04084 -58.99911,16.18595 c -32.44951,8.90228 -59.40633,16.2065 -59.90401,16.23161 -0.706,0.0356 -0.9049,-4.9652 -0.9049,-22.75209 z"
     id="path957"
     inkscape:connector-curvature="0" />
  <path
     style="fill:#d0d0d0;fill-opacity:1;stroke:none;stroke-width:0.13958365;stroke-linejoin:round;stroke-miterlimit:4;stroke-dasharray:none;stroke-opacity:1;paint-order:normal"
     d="m 253.43686,350.07856 v -35.85519 h 29.07059 29.07059 l -0.44603,3.39897 c -0.24534,1.86944 -1.52276,14.83024 -2.83873,28.80179 -1.31596,13.97157 -2.61759,25.61027 -2.89251,25.86381 -0.2749,0.25352 -11.6292,3.26546 -25.23175,6.69319 -13.60255,3.42773 -25.18197,6.39431 -25.73203,6.59242 -0.81701,0.29426 -1.00013,-6.20453 -1.00013,-35.49499 z"
     id="path959"
     inkscape:connector-curvature="0" />
  <path
     style="fill:#d0d0d0;fill-opacity:1;stroke:none;stroke-width:0.04766972;stroke-linejoin:round;stroke-miterlimit:4;stroke-dasharray:none;stroke-opacity:1;paint-order:normal"
     d="m 350.3943,320.5856 c 0.81717,-6.00454 9.80893,-104.75791 10.37011,-113.8913 l 0.17433,-2.83724 -52.94233,-0.0637 -52.94232,-0.0636 -0.0644,-22.76577 -0.0644,-22.76576 h 55.0924 55.09241 l 0.28705,-2.08108 c 0.31599,-2.29087 2.05487,-20.44752 3.31157,-34.57802 0.61476,-6.91243 0.7342,-9.10705 0.50793,-9.33334 -0.22402,-0.22404 -14.12995,-0.31684 -57.29225,-0.38231 l -56.99643,-0.0865 V 89.688337 67.639658 h 74.19918 74.19918 l -0.1593,1.828829 c -0.0876,1.005856 -2.08758,22.999099 -4.44438,48.873873 -4.48543,49.2445 -18.42531,202.96905 -18.42531,203.18841 0,0.0698 -6.76101,0.12691 -15.02446,0.12691 H 350.2484 Z"
     id="path961"
     inkscape:connector-curvature="0"
     transform="translate(0,64)" />
  <path
     style="fill:#d0d0d0;fill-opacity:1;stroke:#d0d0d0;stroke-width:0.75590551;stroke-linejoin:round;stroke-miterlimit:4;stroke-dasharray:none;stroke-opacity:1;paint-order:normal"
     d="m 255.59013,416.22074 c -0.23809,-1.1904 -0.20162,-1.94199 0.0732,-1.50803 0.18944,0.2992 0.48373,0.28735 1.95109,-0.0786 4.43454,-1.10581 41.43308,-11.19082 101.00527,-27.53188 l 16.28628,-4.46743 1.94587,-21.47057 c 12.93011,-142.67046 16.56265,-182.87085 16.56265,-183.29451 0,-0.40561 0.17065,-0.50037 0.90103,-0.50037 h 0.90104 l -0.15036,1.32432 c -0.0827,0.72838 -1.34195,14.66216 -2.79833,30.96397 -6.98007,78.13012 -15.5871,172.12164 -15.88468,173.46579 -0.0912,0.41198 -0.51004,0.67377 -1.69804,1.06138 -7.98571,2.60549 -117.25956,32.82418 -118.69557,32.82418 -0.13297,0 -0.3127,-0.35473 -0.39941,-0.78829 z"
     id="path967"
     inkscape:connector-curvature="0"
     transform="translate(0,64)" />
  <path
     style="fill:#d0d0d0;fill-opacity:1;stroke:#d0d0d0;stroke-width:0.75590551;stroke-linejoin:round;stroke-miterlimit:4;stroke-dasharray:none;stroke-opacity:1;paint-order:normal"
     d="m 393.6667,176.12934 c 0,-0.72573 9.45405,-104.849975 9.75307,-107.41761 l 0.15423,-1.324324 h -74.19689 -74.19689 v -0.630631 -0.630631 h 74.79279 74.79279 v 1.132294 c 0,0.622762 -0.28719,4.5106 -0.63819,8.63964 -1.83247,21.556275 -8.62342,98.364852 -8.83209,99.894732 -0.13432,0.98488 -0.2065,1.07207 -0.88752,1.07207 -0.65074,0 -0.7413,-0.0899 -0.7413,-0.73554 z"
     id="path971"
     inkscape:connector-curvature="0"
     transform="translate(0,64)" />
</svg>
