<svg xmlns="http://www.w3.org/2000/svg" width="12" height="16"><rect id="backgroundrect" width="100%" height="100%" x="0" y="0" fill="none" stroke="none"/><g class="currentLayer" style=""><title>Layer 1</title><path fill-rule="evenodd" d="M12 14.002a.998.998 0 0 1-.998.998H1.001A1 1 0 0 1 0 13.999V13c0-2.633 4-4 4-4s.229-.409 0-1c-.841-.62-.944-1.59-1-4 .173-2.413 1.867-3 3-3s2.827.586 3 3c-.056 2.41-.159 3.38-1 4-.229.59 0 1 0 1s4 1.367 4 4v1.002z" id="svg_1" class="selected" fill="#ffffff" fill-opacity="1"/></g></svg>