<?xml version="1.0" encoding="UTF-8" standalone="no"?>
<svg
   xmlns:dc="http://purl.org/dc/elements/1.1/"
   xmlns:cc="http://creativecommons.org/ns#"
   xmlns:rdf="http://www.w3.org/1999/02/22-rdf-syntax-ns#"
   xmlns:svg="http://www.w3.org/2000/svg"
   xmlns="http://www.w3.org/2000/svg"
   xmlns:sodipodi="http://sodipodi.sourceforge.net/DTD/sodipodi-0.dtd"
   xmlns:inkscape="http://www.inkscape.org/namespaces/inkscape"
   fill="#fff"
   viewBox="0 0 512 512"
   height="100%"
   width="100%"
   version="1.1"
   id="svg917"
   sodipodi:docname="trello.svg"
   inkscape:version="0.92.2 (5c3e80d, 2017-08-06)">
  <path
     style="fill:#ffffff;fill-opacity:1;stroke:none;stroke-width:0.02459895;stroke-linejoin:round;stroke-miterlimit:4;stroke-dasharray:none;stroke-opacity:1;paint-order:normal"
     d="M 58.641681,507.80314 C 35.313521,501.45221 20.309777,489.258 9.9623018,468.23929 L 2.820339,453.73191 V 255.17783 56.623729 L 7.9063012,46.391641 C 16.028926,30.050308 28.630895,17.403996 44.651635,9.5170117 L 59.135881,2.3864407 H 256.60522 454.07458 l 11.95941,5.8799421 c 24.06686,11.8326612 39.46817,33.0483612 43.31771,59.6712512 2.83355,19.596361 2.83104,356.979476 -0.002,376.578406 -1.17217,8.10686 -4.17223,18.74045 -6.66678,23.63016 -7.34418,14.39579 -22.37672,28.78362 -37.25175,35.65416 l -13.52592,6.2471 L 260.99,510.48157 C 100.91848,510.84555 68.227499,510.4128 58.641681,507.80314 Z M 217.20025,389.38676 c 2.6063,-1.33287 6.42549,-4.50575 8.48709,-7.05085 3.46054,-4.27207 3.7521,-14.98908 3.79661,-139.55731 l 0.0482,-134.92986 -4.88135,-5.65829 c -7.0262,-8.144563 -17.1491,-9.675324 -63.45758,-9.595903 -46.57989,0.07988 -53.77861,1.564153 -61.21301,12.621203 l -4.956481,7.37167 v 129.9564 c 0,111.05282 0.471563,130.8683 3.241847,136.22545 6.574374,12.71344 8.170234,13.0409 63.552994,13.0409 33.02497,0 52.29149,-0.84306 55.38168,-2.42341 z M 406.08727,280.45499 c 11.59795,-7.60841 12.1907,-12.05702 12.1907,-91.49228 0,-79.44425 -0.59247,-83.88806 -12.19797,-91.49227 -5.42288,-3.553217 -11.28782,-3.965355 -56.42889,-3.965355 -47.74738,0 -50.69672,0.237305 -56.50219,4.546195 -11.09873,8.23762 -11.81707,14.41751 -11.11031,95.58293 0.6216,71.38664 0.81863,74.43708 5.18831,80.32588 7.65753,10.31962 14.78544,11.50171 66.06898,10.95689 41.10258,-0.43668 47.47657,-0.9754 52.79137,-4.46199 z"
     id="path1468"
     inkscape:connector-curvature="0" />
</svg>
