<?xml version="1.0" encoding="UTF-8"?>
<svg xmlns="http://www.w3.org/2000/svg" xmlns:xlink="http://www.w3.org/1999/xlink" width="16pt" height="16pt" viewBox="0 0 16 16" version="1.1">
<g id="surface1">
<path style=" stroke:none;fill-rule:nonzero;fill:rgb(100%,100%,100%);fill-opacity:1;" d="M 14.050781 3.839844 L 8.664062 0.8125 C 8.253906 0.582031 7.746094 0.582031 7.335938 0.8125 L 1.949219 3.839844 C 1.535156 4.074219 1.28125 4.507812 1.28125 4.972656 L 1.28125 11.027344 C 1.28125 11.492188 1.535156 11.925781 1.949219 12.160156 L 7.335938 15.1875 C 7.542969 15.300781 7.769531 15.359375 8 15.359375 C 8.230469 15.359375 8.457031 15.300781 8.664062 15.1875 L 14.050781 12.160156 C 14.464844 11.925781 14.71875 11.492188 14.71875 11.027344 L 14.71875 4.972656 C 14.71875 4.507812 14.464844 4.074219 14.050781 3.839844 Z M 8 11.839844 C 5.882812 11.839844 4.160156 10.117188 4.160156 8 C 4.160156 5.882812 5.882812 4.160156 8 4.160156 C 9.210938 4.160156 10.328125 4.722656 11.054688 5.675781 L 9.652344 6.488281 C 9.230469 6.027344 8.632812 5.761719 8 5.761719 C 6.765625 5.761719 5.761719 6.765625 5.761719 8 C 5.761719 9.234375 6.765625 10.238281 8 10.238281 C 8.632812 10.238281 9.230469 9.972656 9.652344 9.511719 L 11.054688 10.324219 C 10.328125 11.277344 9.210938 11.839844 8 11.839844 Z M 11.839844 8.320312 L 11.199219 8.320312 L 11.199219 8.960938 L 10.558594 8.960938 L 10.558594 8.320312 L 9.921875 8.320312 L 9.921875 7.679688 L 10.558594 7.679688 L 10.558594 7.039062 L 11.199219 7.039062 L 11.199219 7.679688 L 11.839844 7.679688 Z M 14.078125 8.320312 L 13.441406 8.320312 L 13.441406 8.960938 L 12.800781 8.960938 L 12.800781 8.320312 L 12.160156 8.320312 L 12.160156 7.679688 L 12.800781 7.679688 L 12.800781 7.039062 L 13.441406 7.039062 L 13.441406 7.679688 L 14.078125 7.679688 Z M 14.078125 8.320312 "/>
</g>
</svg>
