<?xml version="1.0" encoding="UTF-8" standalone="no"?>
<svg
   xmlns:dc="http://purl.org/dc/elements/1.1/"
   xmlns:cc="http://creativecommons.org/ns#"
   xmlns:rdf="http://www.w3.org/1999/02/22-rdf-syntax-ns#"
   xmlns:svg="http://www.w3.org/2000/svg"
   xmlns="http://www.w3.org/2000/svg"
   xmlns:sodipodi="http://sodipodi.sourceforge.net/DTD/sodipodi-0.dtd"
   xmlns:inkscape="http://www.inkscape.org/namespaces/inkscape"
   height="2048px"
   style="shape-rendering:geometricPrecision; text-rendering:geometricPrecision; image-rendering:optimizeQuality; fill-rule:evenodd; clip-rule:evenodd"
   viewBox="0 0 2048 2048"
   width="2048px"
   xml:space="preserve"
   version="1.1"
   id="svg2194"
   sodipodi:docname="css3.svg"
   inkscape:version="0.92.2 (5c3e80d, 2017-08-06)"><metadata
     id="metadata981"><rdf:RDF><cc:Work
         rdf:about=""><dc:format>image/svg+xml</dc:format><dc:type
           rdf:resource="http://purl.org/dc/dcmitype/StillImage" /></cc:Work></rdf:RDF></metadata><defs
     id="defs979" /><sodipodi:namedview
     pagecolor="#ffffff"
     bordercolor="#666666"
     borderopacity="1"
     objecttolerance="10"
     gridtolerance="10"
     guidetolerance="10"
     inkscape:pageopacity="0"
     inkscape:pageshadow="2"
     inkscape:window-width="1920"
     inkscape:window-height="1057"
     id="namedview977"
     showgrid="false"
     inkscape:zoom="0.921875"
     inkscape:cx="1384.5519"
     inkscape:cy="918.83376"
     inkscape:window-x="1912"
     inkscape:window-y="-8"
     inkscape:window-maximized="1"
     inkscape:current-layer="svg2194" /><path
     style="fill:#c0c0c0;fill-opacity:1;stroke:none;stroke-width:6.28725147;stroke-linejoin:round;stroke-miterlimit:4;stroke-dasharray:none;stroke-opacity:1;paint-order:normal"
     d="m 1024.4905,1616.8278 v -103.9227 l 174.6622,-48.5948 174.6623,-48.5947 23.3261,-259.9547 c 12.8295,-142.975 23.999,-263.06535 24.8212,-266.86746 l 1.4949,-6.91294 H 1223.738 c -181.3263,0 -199.6235,-0.45251 -198.6793,-4.91357 0.6952,-3.2849 69.2741,-32.74764 206.895,-88.88597 l 205.8551,-83.9724 8.6374,-80.86512 c 4.7506,-44.47581 8.731,-83.97593 8.8453,-87.77805 l 0.2079,-6.91294 h -215.5045 -215.5044 v -72.20181 -72.20182 h 299.33 299.3303 l -1.8116,13.05777 c -0.9963,7.18177 -26.5736,279.20596 -56.8386,604.49821 -30.2651,325.2922 -55.2303,591.6492 -55.4782,591.9043 -0.9794,1.0076 -478.6579,127.0414 -481.4973,127.0414 -1.842,0 -3.0346,-40.8409 -3.0346,-103.9227 z"
     id="path2747"
     inkscape:connector-curvature="0" /><path
     style="fill:#b0b0b0;fill-opacity:1;stroke:none;stroke-width:6.13624859;stroke-linejoin:round;stroke-miterlimit:4;stroke-dasharray:none;stroke-opacity:1;paint-order:normal"
     d="m 746.82528,1743.6196 -273.06306,-76.0507 -2.46905,-16.5297 C 469.48864,1638.9583 349.50318,298.49092 349.50318,290.41178 c 0,-0.70115 305.12497,-1.27482 678.05552,-1.27482 372.9305,0 678.0554,0.59633 678.0554,1.32518 0,11.4931 -123.0734,1374.56566 -124.2141,1375.70636 -2.697,2.6971 -548.7963,153.7553 -555.3754,153.6242 -3.3749,-0.067 -129.01463,-34.3452 -279.19932,-76.1731 z m 516.42482,-89.6567 c 127.0991,-35.2613 231.8475,-57.9663 232.7741,-58.8929 1.7146,-1.7146 108.2183,-1185.68422 108.2982,-1203.9179 v 0 l -289.8937,-6.13625 -289.9382,-0.76703 4e-4,70.56686 v 73.63498 H 792.84715 c -127.40386,0 -231.633,1.03549 -231.62031,2.30109 0.0126,1.2656 4.8346,40.26913 10.71536,86.67452 5.88075,46.40538 10.70266,84.70937 10.71536,85.12001 0.0126,0.41061 98.35179,1.10094 218.53133,1.53406 l 218.50821,0.78747 -209.46614,87.23009 c -115.20641,47.97657 -210.07983,88.22299 -210.82983,89.43653 -0.75001,1.21353 1.65743,39.62191 5.34987,85.3519 l 6.71351,83.14547 h 206.513 206.51299 v 136.4438 136.4438 l -9.9714,2.587 c -7.9582,2.0646 -28.76013,-2.1115 -103.03286,-20.6845 -60.20344,-15.0548 -93.89936,-24.8744 -95.43456,-27.8113 -1.30521,-2.4969 -4.03121,-26.6303 -6.0578,-53.6298 -2.02655,-26.9995 -4.48756,-56.3384 -5.4689,-65.1976 l -1.78423,-16.1077 H 712.7302 622.71966 l 1.40068,8.4374 c 0.77037,4.6405 5.60709,62.2829 10.74825,128.0942 5.14116,65.8112 10.34413,122.924 11.56214,126.9172 2.0267,6.6445 17.05074,11.6533 177.09766,59.0424 96.1857,28.4801 177.64441,52.0296 181.01931,52.3324 3.375,0.3028 9.2428,-0.4721 13.0396,-1.7218 l 6.9032,-2.2722 0,106.057 c 0,82.8113 3.1417,95.3141 6.1363,95.2979 2.1093,-0.012 105.5242,-25.0359 232.6233,-60.2971 z"
     id="path2749"
     inkscape:connector-curvature="0"
     sodipodi:nodetypes="scssssccsssccccccscscscscsccccccscccccccscscccscs" /><path
     style="fill:#c0c0c0;fill-opacity:1;stroke:none;stroke-width:6.43750334;stroke-linejoin:round;stroke-miterlimit:4;stroke-dasharray:none;stroke-opacity:1;paint-order:normal"
     d="m 1022.1895,1186.7632 2.301,-136.7314 88.1866,2.493 c 55.2349,1.5615 100.6691,1.4627 100.9258,1.6921 0.2567,0.2294 -2.686,49.6094 -6.5396,109.7334 l -7.0063,109.3163 -88.0101,22.3149 c -48.4056,12.2732 -84.3062,26.5553 -87.5564,27.3379 -5.562,1.3394 -4.435,-9.3477 -2.301,-136.1562 z"
     id="path2751"
     inkscape:connector-curvature="0"
     sodipodi:nodetypes="scssccscs" /></svg>