<?xml version="1.0" encoding="UTF-8" standalone="no"?>
<!-- Created with Inkscape (http://www.inkscape.org/) -->

<svg
   xmlns:osb="http://www.openswatchbook.org/uri/2009/osb"
   xmlns:dc="http://purl.org/dc/elements/1.1/"
   xmlns:cc="http://creativecommons.org/ns#"
   xmlns:rdf="http://www.w3.org/1999/02/22-rdf-syntax-ns#"
   xmlns:svg="http://www.w3.org/2000/svg"
   xmlns="http://www.w3.org/2000/svg"
   xmlns:sodipodi="http://sodipodi.sourceforge.net/DTD/sodipodi-0.dtd"
   xmlns:inkscape="http://www.inkscape.org/namespaces/inkscape"
   width="180.29465mm"
   height="107.63674mm"
   viewBox="0 -10 180.29465 107.63674"
   version="1.1"
   id="svg3705"
   inkscape:version="0.92.2 (5c3e80d, 2017-08-06)"
   sodipodi:docname="dx12.svg">
  <defs
     id="defs3699">
    <linearGradient
       id="linearGradient4526"
       osb:paint="solid">
      <stop
         style="stop-color:#000000;stop-opacity:1;"
         offset="0"
         id="stop4524" />
    </linearGradient>
  </defs>
  <sodipodi:namedview
     id="base"
     pagecolor="#ffffff"
     bordercolor="#666666"
     borderopacity="1.0"
     inkscape:pageopacity="0.0"
     inkscape:pageshadow="2"
     inkscape:zoom="2.8"
     inkscape:cx="421.42791"
     inkscape:cy="175.15917"
     inkscape:document-units="mm"
     inkscape:current-layer="layer1"
     showgrid="false"
     fit-margin-top="0"
     fit-margin-left="0"
     fit-margin-right="0"
     fit-margin-bottom="0"
     inkscape:window-width="1920"
     inkscape:window-height="1057"
     inkscape:window-x="1912"
     inkscape:window-y="-8"
     inkscape:window-maximized="1" />
  <metadata
     id="metadata3702">
    <rdf:RDF>
      <cc:Work
         rdf:about="">
        <dc:format>image/svg+xml</dc:format>
        <dc:type
           rdf:resource="http://purl.org/dc/dcmitype/StillImage" />
        <dc:title />
      </cc:Work>
    </rdf:RDF>
  </metadata>
  <g
     inkscape:label="Layer 1"
     inkscape:groupmode="layer"
     id="layer1"
     transform="translate(0,-1)">
    <path
       style="fill:none;stroke-width:3.79355192;stroke-linecap:butt;stroke-linejoin:miter;stroke-miterlimit:4;stroke-dasharray:none;stroke-opacity:1;stroke:#ffffff"
       d="M 17.046354,73.409495 17.675729,19.138648 H 167.78169 L 167.46701,82.935754 30.892607,82.069729 Z"
       id="path4576"
       inkscape:connector-curvature="0"
       stroke="#ffffff" />
    <path
       style="fill:none;stroke-width:3.565;stroke-linecap:butt;stroke-linejoin:miter;stroke-miterlimit:4;stroke-dasharray:none;stroke-opacity:1;stroke:#ffffff"
       d="M 169.34918,90.239302 C 29.108969,89.416969 28.462702,89.691086 28.462702,89.691086 L 18.122409,84.482971"
       id="path4596"
       inkscape:connector-curvature="0"
       stroke="#ffffff" />
    <path
       style="fill:none;stroke:#ffffff;stroke-width:4;stroke-linecap:butt;stroke-linejoin:miter;stroke-miterlimit:4;stroke-dasharray:none;stroke-opacity:1"
       d="m 43.278274,64.807872 0.09449,-28.537202 c 17.16642,-0.598462 22.55976,3.441812 22.489587,14.930059 -0.099,8.288482 -3.137752,14.324228 -22.584077,13.607143 z"
       id="path4532"
       inkscape:connector-curvature="0"
       sodipodi:nodetypes="cccc" />
    <path
       style="fill:#ffffff;stroke:none;stroke-width:0.265;stroke-linecap:butt;stroke-linejoin:miter;stroke-opacity:1;fill-opacity:1;stroke-miterlimit:4;stroke-dasharray:none"
       d="M 77.107142,66.603258 H 72.193451 L 83.532736,50.444775 72.665922,34.475282 77.485117,34.286296 86.17857,47.70445 94.966516,34.286296 h 4.630209 L 88.540922,50.539269 99.502231,66.508765 94.683034,66.603255 85.895088,53.37409 Z"
       id="path4538"
       inkscape:connector-curvature="0"
       sodipodi:nodetypes="ccccccccccccc" />
    <path
       style="fill:#ffffff;stroke:none;stroke-width:0.26458332px;stroke-linecap:butt;stroke-linejoin:miter;stroke-opacity:1;fill-opacity:1"
       d="m 109.99107,67.5482 -0.0945,-29.765626 -5.57515,3.118305 -0.0945,-5.197173 5.10268,-3.118305 5.85863,-0.09449 -0.0945,35.151785 z"
       id="path4540"
       inkscape:connector-curvature="0"
       sodipodi:nodetypes="cccccccc" />
    <path
       style="fill:#ffffff;fill-opacity:1;stroke:none;stroke-width:0.1;stroke-linecap:butt;stroke-linejoin:miter;stroke-miterlimit:4;stroke-dasharray:none;stroke-opacity:1"
       d="m 123.40922,67.453705 v -4.252232 l 14.3631,-17.29241 c 1.33548,-2.641256 2.07035,-5.208491 0.69558,-7.138545 -1.5292,-2.146862 -4.9495,-2.821472 -7.69249,-1.212265 -1.10153,0.646226 -1.75505,1.34463 -2.358,4.004084 l -5.48065,0.09449 c 0.32498,-1.2563 0.63626,-3.637473 2.57358,-5.839056 1.54033,-1.75044 4.0043,-3.526387 9.06801,-3.536289 4.8594,-0.0095 10.04175,1.044461 10.28102,9.753321 -0.47738,3.384613 -1.60587,4.490334 -2.55134,6.236608 l -11.90625,14.646576 h 14.74108 l -0.18899,4.724702 z"
       id="path4546"
       inkscape:connector-curvature="0"
       sodipodi:nodetypes="cccssccsscccccc" />
  </g>
</svg>
