<?xml version="1.0" encoding="utf-8"?>
<!-- Generator: Adobe Illustrator 19.2.1, SVG Export Plug-In . SVG Version: 6.00 Build 0)  -->
<svg version="1.1" id="layer" xmlns="http://www.w3.org/2000/svg" xmlns:xlink="http://www.w3.org/1999/xlink" x="0px" y="0px"
	 viewBox="0 0 652 652" style="enable-background:new 0 0 652 652;" xml:space="preserve">
<style type="text/css">
	.st0{fill:#ffffff;}
</style>
<path id="SvgjsPath1035" class="st0" d="M34.4,329.6c-1.1,0-1.9-0.9-1.9-1.9v-27.9c0-1.1,0.9-1.9,1.9-1.9h12.4
	c9,0,16.3,5.7,16.7,15.1c-0.4,9.6-7.6,16.7-16.6,16.7H34.4z M30.4,358.3c0.9,0,2-0.5,2-1.3v-19.9c0-1.1,0.9-1.9,1.9-1.9h15
	c11.5,0,21-8.9,21-21c0-0.2,0-0.4,0-0.7c0-0.2,0-0.5,0-0.7c0-11.9-9.5-20.7-21.1-20.7H27.8c-1.1,0-2,0.9-2,1.9v62.1
	c0,1.3,1.3,2.1,2.3,2.1H30.4z"/>
<path id="SvgjsPath1036" class="st0" d="M141.7,292.2h-2.2h-33.7h-2.2c-1.1,0-2,0.9-2,1.9v1.3v59.4v1.3c0,1.1,0.9,1.9,2,1.9h2.2
	h33.7h2.2c1.1,0,1.9-0.9,1.9-1.9v-0.6v-0.7c0-1.1-0.9-1.9-1.9-1.9h-2.2h-29.2c-1.1,0-2-0.9-2-1.9v-22.1c0-1.1,0.9-1.9,2-1.9h24.7
	h2.2c1.1,0,1.9-0.9,1.9-1.9V325c0-0.2,0,0,0-0.5c-0.1-0.6,0-0.5,0-0.7v-0.1c0-1.1-0.9-1.9-1.9-1.9h-2.2h-24.7c-1.1,0-2-0.9-2-1.9
	v-20.3c0-1.1,0.9-1.9,2-1.9h29.2h2.2c1.1,0,1.9-0.9,1.9-1.9v-0.1v-1.2v-0.1C143.7,293.1,142.8,292.2,141.7,292.2"/>
<path id="SvgjsPath1037" class="st0" d="M183.5,327.7c-1.1,0-2-0.9-2-1.9v-26c0-1.1,0.9-1.9,2-1.9h15.4c8.8,0,15,5.6,15.4,14
	c-0.4,8.8-6.6,15.9-15.3,15.9H183.5z M179.7,358.2c1.1,0,1.8-0.6,1.8-1.2v-21.8c0-1.1,0.9-1.9,1.9-1.9h15.5c0.6,0.1,1.2,0.4,1.5,1
	l12.8,22.8c0.5,0.8,0.8,1.1,1.9,1.1h4.9c0,0,2,0,0.4-3l-12.5-21.9l0.1,0.2c-0.6-1.1,0.9-1.6,0.9-1.6c7.4-2.4,13.1-11.4,12.8-20.3
	c0.2-7.1-3.2-14.2-12.6-18c-0.5-0.2-3.6-1.3-8.8-1.3H176c-0.8,0-1.2,0.6-1.2,1.2v62.8c0,1.1,0.9,1.9,2,1.9H179.7z"/>
<path id="SvgjsPath1038" class="st0" d="M259.7,358.2h0.9c0.9,0,1.5-0.6,1.5-1.2v-1.3v-24.3c0-1.1,0.9-1.9,1.9-1.9h25.5h2.2
	c1.4,0,1.2-1.7,1.2-2.7c0,0,0,0,0-0.1c0-0.4,0-0.9,0-1.3c0-0.7-0.6-1.2-1.2-1.2h-2.2h-25.5c-1.1,0-1.9-0.9-1.9-1.9v-22.8
	c0-1.1,0.9-1.9,1.9-1.9h29.3h2.2c1.1,0,1.9-0.9,1.9-1.9v-0.1v-1.2v-0.1c0-1.1-0.9-1.9-1.9-1.9h-2.2h-33.7h-2.2c-1.1,0-2,0.9-2,1.9
	v1.3v59.4v1.3c0,1.1,0.9,1.9,2,1.9h0.9H259.7z"/>
<path id="SvgjsPath1039" class="st0" d="M327.7,316.2c0.5-1.3,1.1-2.6,1.8-3.8c-0.7-0.6-2.3-1.9-2.2-2c8.6-10.2,19.7-13.3,29.6-11.5
	c2,0.3,4,0.8,6,1.5c14.1,5.3,21.3,20.8,16,34.8c-0.5,1.4-1.2,2.7-1.9,4c0.8,0.7,2.5,1.9,2.4,2c-9.5,11.2-22.1,13.8-32.7,10.7
	c-1-0.3-2-0.6-3-0.9C329.5,345.8,322.4,330.2,327.7,316.2z M375.9,292.2c-1.8,1.7-3.9,3.8-5,4.7c-1.7-0.9-3.5-1.8-5.3-2.5
	c-16.1-6-33,0.8-42.3,13.3c-4.9,7.2-7.7,16.1-7,25.2c0,0,0,17.1,15.9,27.2c1.3-1.8,2.9-4,4-5.5c1.8,1,3.6,1.9,5.6,2.7
	c18.2,6.7,38.3-1.9,44.9-19.2c0,0,4.8-10.6,3.2-22.1C389.8,316,388.6,300.4,375.9,292.2z"/>
<path id="SvgjsPath1040" class="st0" d="M425.8,327.7c-1.1,0-2-0.9-2-1.9v-26c0-1.1,0.9-1.9,2-1.9h15.4c8.8,0,15,5.6,15.4,14
	c-0.4,8.8-6.6,15.9-15.3,15.9H425.8z M422,358.2c1.1,0,1.8-0.6,1.8-1.2v-21.8c0-1.1,0.9-1.9,1.9-1.9h15.5c0.6,0.1,1.2,0.4,1.5,1
	l12.7,22.8c0.5,0.8,0.9,1.1,2,1.1h4.9c0,0,2,0,0.4-3l-12.5-21.9l0.1,0.2c-0.6-1.1,0.9-1.6,0.9-1.6c7.4-2.4,13.1-11.4,12.8-20.3
	c0.2-7.1-3.2-14.2-12.6-18c-0.5-0.2-3.6-1.3-8.8-1.3h-24.4c-0.8,0-1.2,0.6-1.2,1.2v62.8c0,1.1,0.9,1.9,2,1.9H422z"/>
<path id="SvgjsPath1041" class="st0" d="M553.5,344.9c0.8,0.7,2.3,2.4,0.7,3.7c-6.9,5.4-14.5,9-22.8,9c-0.4,0-0.8,0-1.2-0.1
	c-0.4,0-0.7,0.1-1.1,0.1c-18.7,0-33.8-14.6-33.8-33.2c0-0.2,0-0.4,0-0.7c0-0.2,0-0.4,0-0.7c0-18.5,15.1-33.3,33.8-33.3
	c0.3,0,0.6,0,0.8,0c0.5,0,0.9,0,1.4,0c9.5,0,16.6,3.1,22.7,8.6c1.9,1.6,0.1,3,0.1,3l-1.4,1.4c-0.6,0.6-2.1,1.8-2.8,1.1
	c-0.9-0.9-1.1-1-1.1-1l1.1,1c-0.9-0.8-0.5-0.4-1.1-1c-5-4.5-11.4-7.2-18.6-7.5c-15.6,0.6-27.7,13.2-28,28.5
	c0.4,15.2,12.4,27.7,28,28.3c7.5-0.3,13.2-3.3,18.6-7.7C548.9,344.3,551.2,342.5,553.5,344.9"/>
<path id="SvgjsPath1042" class="st0" d="M623.9,292.2h-2.2h-33.7h-2.2c-1.1,0-2,0.9-2,1.9v1.3v59.4v1.3c0,1.1,0.9,1.9,2,1.9h2.2
	h33.7h2.2c1.1,0,2-0.9,2-1.9v-0.6v-0.7c0-1.1-0.9-1.9-2-1.9h-2.2h-29.2c-1.1,0-2-0.9-2-1.9v-22.1c0-1.1,0.9-1.9,2-1.9h24.7h2.2
	c1.1,0,1.9-0.9,1.9-1.9V325c0-0.2,0,0,0-0.5c0-0.6,0-0.5,0-0.7v-0.1c0-1.1-0.9-1.9-1.9-1.9h-2.2h-24.7c-1.1,0-2-0.9-2-1.9v-20.3
	c0-1.1,0.9-1.9,2-1.9h29.2h2.2c1.1,0,2-0.9,2-1.9v-0.1v-1.2v-0.1C625.8,293.1,625,292.2,623.9,292.2"/>
</svg>
