<svg xmlns:dc="http://purl.org/dc/elements/1.1/" xmlns:cc="http://creativecommons.org/ns#" xmlns:rdf="http://www.w3.org/1999/02/22-rdf-syntax-ns#" xmlns:svg="http://www.w3.org/2000/svg" xmlns="http://www.w3.org/2000/svg" xmlns:sodipodi="http://sodipodi.sourceforge.net/DTD/sodipodi-0.dtd" xmlns:inkscape="http://www.inkscape.org/namespaces/inkscape" width="100%" height="100%" viewBox="-231 -100 924 439" version="1.1" inkscape:version="0.91 r13725" sodipodi:docname="TheQtCompany_logo_2.svg" style=""><rect id="backgroundrect" width="100%" height="100%" x="0" y="0" fill="none" stroke="none"/>
  <metadata id="metadata20">
    <rdf:RDF>
      <cc:Work rdf:about="">
        <dc:format>image/svg+xml</dc:format>
        <dc:type rdf:resource="http://purl.org/dc/dcmitype/StillImage"/>
        <dc:title/>
      </cc:Work>
    </rdf:RDF>
  </metadata>
  <defs id="defs18"/>
  <sodipodi:namedview pagecolor="#ffffff" bordercolor="#666666" borderopacity="1" objecttolerance="10" gridtolerance="10" guidetolerance="10" inkscape:pageopacity="0" inkscape:pageshadow="2" inkscape:window-width="1536" inkscape:window-height="801" id="namedview16" showgrid="false" inkscape:zoom="1.1138643" inkscape:cx="270.58047" inkscape:cy="174.65092" inkscape:window-x="-8" inkscape:window-y="-8" inkscape:window-maximized="1" inkscape:current-layer="svg2"/>
  
<g class="currentLayer" style=""><title>Layer 1</title>

	<mask id="qt">
	
		<rect x="0" y="0" width="100%" height="100%" fill="white"/>
	
		<path d=" M 122.37 71.33 C 137.50 61.32 156.21 58.79 174.00 58.95 C 190.94 59.16 208.72 62.13 222.76 72.24 C 232.96 79.41 239.59 90.48 244.01 101.93 C 251.16 120.73 253.26 141.03 253.50 161.01 C 253.53 181.13 252.62 201.69 245.96 220.86 C 241.50 233.90 233.01 245.48 221.81 253.52 C 229.87 266.58 238.09 279.54 246.15 292.60 C 236.02 297.27 225.92 301.97 215.78 306.62 C 207.15 292.38 198.56 278.11 189.90 263.89 C 178.19 265.81 166.21 265.66 154.44 264.36 C 140.34 262.67 125.97 258.37 115.09 248.88 C 106.73 241.64 101.48 231.51 97.89 221.21 C 92.01 203.79 90.43 185.25 90.16 166.97 C 90.02 147.21 91.28 127.14 97.24 108.18 C 101.85 93.92 109.48 79.69 122.37 71.33 Z" id="path8" fill="#000000" class="" fill-opacity="1"/>
		
		<path d=" M 294.13 70.69 C 304.73 70.68 315.33 70.68 325.93 70.69 C 325.96 84.71 325.92 98.72 325.95 112.74 C 339.50 112.76 353.05 112.74 366.60 112.75 C 366.37 121.85 366.12 130.95 365.86 140.05 C 352.32 140.08 338.79 140.04 325.25 140.07 C 325.28 163.05 325.18 186.03 325.30 209.01 C 325.56 215.30 325.42 221.94 328.19 227.75 C 330.21 232.23 335.65 233.38 340.08 233.53 C 348.43 233.50 356.77 233.01 365.12 232.86 C 365.63 241.22 366.12 249.59 366.60 257.95 C 349.99 260.74 332.56 264.08 316.06 258.86 C 309.11 256.80 302.63 252.19 299.81 245.32 C 294.76 233.63 294.35 220.62 294.13 208.07 C 294.11 185.40 294.13 162.74 294.12 140.07 C 286.73 140.05 279.34 140.08 271.95 140.05 C 271.93 130.96 271.93 121.86 271.95 112.76 C 279.34 112.73 286.72 112.77 294.11 112.74 C 294.14 98.72 294.10 84.71 294.13 70.69 Z" id="path10" fill="#000000" class="" fill-opacity="1"/>
  
		<path fill="#ffffff" d="M160.50999450683594,88.21020102500916 C170.8000030517578,86.87020468711853 181.60000610351562,87.23020529747009 191.33999633789062,91.12020468711853 C199.22999572753906,94.24020743370056 205.92999267578125,100.35020041465759 209.47000122070312,108.09020590782166 C214.89999389648438,119.82020163536072 216.97999572753906,132.7701985836029 218.02999877929688,145.56020712852478 C219.1699981689453,162.58021140098572 219.00999450683594,179.76020407676697 216.66000366210938,196.68020224571228 C215.00999450683594,206.75020956993103 212.66000366210938,217.3602101802826 205.83999633789062,225.30019736289978 C198.9199981689453,233.2701985836029 188.25,236.69019675254822 178.00999450683594,237.49019980430603 C167.2100067138672,238.2802083492279 155.82000732421875,237.49019980430603 146.07000732421875,232.38019919395447 C140.3800048828125,229.3502004146576 135.5500030517578,224.6002004146576 132.72999572753906,218.7802083492279 C129.30999755859375,211.81020712852478 127.43000030517578,204.20020651817322 126.11000061035156,196.58021140098572 C122.12999725341797,172.42020773887634 121.16999816894531,147.42020773887634 126.61000061035156,123.4002034664154 C128.85000610351562,114.34020590782166 132.11000061035156,105.04020285606384 138.72999572753906,98.21020102500916 C144.49000549316406,92.36020255088806 152.50999450683594,89.34020590782166 160.50999450683594,88.21020102500916 z" id="path12" class="" fill-opacity="1"/>
	
	</mask>

  <path fill="#ffffff" d=" M 63.50 0.00 L 462.00 0.00 L 462.00 274.79 C 440.60 296.26 419.13 317.66 397.61 339.00 L 0.00 339.00 L 0.00 63.39 C 21.08 42.18 42.34 21.13 63.50 0.00 Z" id="path6" class="" mask="url(#qt)" fill-opacity="1"/>
  
</g></svg>