<?xml version="1.0" encoding="UTF-8"?>
<svg xmlns="http://www.w3.org/2000/svg" xmlns:xlink="http://www.w3.org/1999/xlink" width="16pt" height="16pt" viewBox="0 0 16 16" version="1.1">
<g id="surface1">
<path style=" stroke:none;fill-rule:nonzero;fill:rgb(100%,100%,100%);fill-opacity:1;" d="M 8.015625 0.382812 C 12.230469 0.382812 15.648438 3.808594 15.648438 8.015625 C 15.648438 12.222656 12.222656 15.648438 8.015625 15.648438 C 3.808594 15.648438 0.382812 12.230469 0.382812 8.015625 C 0.382812 3.800781 3.808594 0.382812 8.015625 0.382812 M 8.015625 0 C 3.589844 0 0 3.589844 0 8.015625 C 0 12.441406 3.589844 16.03125 8.015625 16.03125 C 12.441406 16.03125 16.03125 12.441406 16.03125 8.015625 C 16.03125 3.589844 12.449219 0 8.015625 0 Z M 8.015625 0 "/>
<path style=" stroke:none;fill-rule:nonzero;fill:rgb(100%,100%,100%);fill-opacity:1;" d="M 7.460938 3.214844 C 7.460938 3.214844 5.652344 3.726562 4.03125 5.449219 C 2.40625 7.167969 2.203125 8.394531 2.203125 9.308594 C 2.558594 8.699219 4.769531 5.339844 5.289062 6.941406 L 5.289062 10.765625 C 5.289062 10.765625 5.257812 11.285156 4.464844 11.078125 C 4.699219 11.519531 5.921875 12.609375 8.121094 12.832031 C 8.625 12.328125 9.28125 11.605469 9.28125 11.605469 L 10.378906 12.535156 C 10.378906 12.535156 12.351562 11.253906 13.128906 9.394531 C 12.402344 9.867188 11.527344 10.964844 11.070312 10.195312 L 11.070312 5.539062 C 11.070312 5.539062 12.242188 3.777344 12.425781 3.695312 C 11.960938 3.777344 10.324219 4.320312 9.460938 5.433594 C 9.21875 5.164062 8.539062 5.15625 8.539062 5.15625 C 8.539062 5.15625 9.074219 5.601562 9.082031 6.003906 C 9.089844 6.40625 9.082031 9.773438 9.082031 10.164062 C 8.714844 10.539062 8.328125 10.734375 8.078125 10.734375 C 7.488281 10.734375 7.320312 10.53125 7.160156 10.324219 L 7.160156 5.433594 C 7.160156 5.433594 6.871094 5.675781 6.644531 5.28125 C 6.414062 4.882812 6.40625 4.113281 7.460938 3.214844 Z M 7.460938 3.214844 "/>
</g>
</svg>
